<?xml version="1.0" encoding="UTF-8"?>
<svg width="256px" height="256px" viewBox="0 0 256 256" version="1.1" xmlns="http://www.w3.org/2000/svg">
    <g>
        <path d="M128,0 C198.692448,0 256,57.307552 256,128 C256,198.692448 198.692448,256 128,256 C57.307552,256 0,198.692448 0,128 C0,57.307552 57.307552,0 128,0 Z" fill="#092E20"></path>
        <path d="M186.666667,76.8 L186.666667,179.2 L160,179.2 L160,89.6 C160,83.2 156.8,80 150.4,80 L128,80 L128,179.2 L101.333333,179.2 L101.333333,80 L80,80 C73.6,80 70.4,83.2 70.4,89.6 L70.4,179.2 L43.7333333,179.2 L43.7333333,89.6 C43.7333333,70.4 54.4,60.8 73.6,60.8 L156.8,60.8 C176,60.8 186.666667,70.4 186.666667,89.6 L186.666667,76.8 Z" fill="#FFFFFF"></path>
    </g>
</svg>
