<?xml version="1.0" encoding="UTF-8"?>
<svg width="256px" height="256px" viewBox="0 0 256 256" version="1.1" xmlns="http://www.w3.org/2000/svg">
    <g>
        <path d="M128,0 C198.692448,0 256,57.307552 256,128 C256,198.692448 198.692448,256 128,256 C57.307552,256 0,198.692448 0,128 C0,57.307552 57.307552,0 128,0 Z" fill="#009688"></path>
        <path d="M128,25.6 C184.903838,25.6 230.4,71.096162 230.4,128 C230.4,184.903838 184.903838,230.4 128,230.4 C71.096162,230.4 25.6,184.903838 25.6,128 C25.6,71.096162 71.096162,25.6 128,25.6 Z" fill="#FFFFFF"></path>
        <path d="M108.8,76.8 L172.8,76.8 L147.2,128 L172.8,179.2 L108.8,179.2 L83.2,128 L108.8,76.8 Z" fill="#009688"></path>
    </g>
</svg>
