<?xml version="1.0" encoding="UTF-8"?>
<svg width="256px" height="256px" viewBox="0 0 256 256" version="1.1" xmlns="http://www.w3.org/2000/svg">
    <g>
        <path d="M128,0 C198.692448,0 256,57.307552 256,128 C256,198.692448 198.692448,256 128,256 C57.307552,256 0,198.692448 0,128 C0,57.307552 57.307552,0 128,0 Z" fill="#000000"></path>
        <path d="M106.666667,64 L149.333333,64 L149.333333,106.666667 L187.733333,170.666667 C192,177.066667 189.866667,185.6 183.466667,189.866667 C181.333333,189.866667 179.2,192 177.066667,192 L78.9333333,192 C72.5333333,192 66.1333333,185.6 66.1333333,179.2 C66.1333333,177.066667 66.1333333,174.933333 68.2666667,172.8 L106.666667,106.666667 L106.666667,64 Z" fill="#FFFFFF"></path>
        <circle cx="128" cy="85.3333333" r="10.6666667" fill="#000000"></circle>
    </g>
</svg>
