<?xml version="1.0" encoding="UTF-8"?>
<svg width="256px" height="256px" viewBox="0 0 256 256" version="1.1" xmlns="http://www.w3.org/2000/svg">
    <g>
        <path d="M128,0 C198.692448,0 256,57.307552 256,128 C256,198.692448 198.692448,256 128,256 C57.307552,256 0,198.692448 0,128 C0,57.307552 57.307552,0 128,0 Z" fill="#4695EB"></path>
        <path d="M128,51.2 C166.4,51.2 198.4,83.2 198.4,121.6 C198.4,160 166.4,192 128,192 C89.6,192 57.6,160 57.6,121.6 C57.6,83.2 89.6,51.2 128,51.2 Z M128,76.8 C103.68,76.8 83.2,97.28 83.2,121.6 C83.2,145.92 103.68,166.4 128,166.4 C152.32,166.4 172.8,145.92 172.8,121.6 C172.8,97.28 152.32,76.8 128,76.8 Z" fill="#FFFFFF"></path>
    </g>
</svg>
