<?xml version="1.0" encoding="UTF-8"?>
<svg width="256px" height="256px" viewBox="0 0 256 256" version="1.1" xmlns="http://www.w3.org/2000/svg">
    <g>
        <path d="M210.483381,73.8236374 C207.827698,72.9095503 205.075867,72.0446761 202.24247,71.2267368 C202.708172,69.3261098 203.135596,67.4500894 203.515631,65.6059664 C209.753843,35.3248922 205.675082,10.9302478 191.747328,2.89849283 C178.392359,-4.80289661 156.551327,3.22703567 134.492936,22.4237776 C132.371761,24.2697233 130.244662,26.2241201 128.118477,28.2723861 C126.701777,26.917204 125.287358,25.6075897 123.876584,24.3549348 C100.758745,3.82852863 77.5866802,-4.82157937 63.6725966,3.23341515 C50.3303869,10.9571328 46.3792156,33.8904224 51.9945178,62.5880206 C52.5367729,65.3599011 53.1706189,68.1905639 53.8873982,71.068617 C50.6078941,71.9995641 47.4418534,72.9920277 44.4125156,74.0478303 C17.3093297,83.497195 0,98.3066828 0,113.667995 C0,129.533287 18.5815786,145.446423 46.8116526,155.095373 C49.0394553,155.856809 51.3511025,156.576778 53.7333796,157.260293 C52.9600965,160.37302 52.2875179,163.423318 51.7229345,166.398431 C46.3687351,194.597975 50.5500231,216.989464 63.8566899,224.664425 C77.6012619,232.590464 100.66852,224.443422 123.130185,204.809231 C124.905501,203.257196 126.687196,201.611293 128.472081,199.886102 C130.785552,202.113904 133.095375,204.222319 135.392897,206.199955 C157.14963,224.922338 178.637969,232.482469 191.932332,224.786092 C205.663234,216.837268 210.125675,192.78347 204.332202,163.5181 C203.88974,161.283006 203.374826,158.99961 202.796573,156.675661 C204.416503,156.196743 206.006814,155.702335 207.557482,155.188332 C236.905331,145.46465 256,129.745175 256,113.667995 C256,98.2510906 238.132466,83.3418093 210.483381,73.8236374 Z" fill="#00D8FF"></path>
        <path d="M201.345213,142.241309 C199.916538,142.694566 198.450663,143.132037 196.957494,143.555114 C194.598352,134.176144 191.121483,124.05513 186.626021,113.610776 C190.899682,103.454335 194.193584,93.4291779 196.436224,84.1794766 C199.084123,84.9394127 201.632032,85.7599298 204.051233,86.6451686 C227.95045,94.7428443 243.181758,107.312256 243.181758,113.667995 C243.181758,120.382992 226.875117,133.627815 201.345213,142.241309 Z" fill="#00D8FF"></path>
        <path d="M171.915087,152.380541 C174.001422,156.944121 175.937789,161.340622 177.687641,165.46876 C169.275098,167.484507 160.163147,168.954827 150.739322,169.811897 C145.172692,162.258678 139.616334,154.001345 134.160271,145.299457 C139.552206,136.707696 145.051263,128.512721 150.553386,121.006676 C159.804056,121.816273 168.719879,123.203956 177.021516,125.132066 C175.325432,129.069946 173.424514,133.202845 171.915087,152.380541 Z" fill="#00D8FF"></path>
        <path d="M132.590027,174.114965 C126.945357,185.657768 121.256892,196.171342 115.606617,205.376075 C109.372852,205.640325 103.052642,205.774818 96.6767168,205.774818 C90.3085405,205.774818 84.0015432,205.641757 77.8145307,205.381045 C72.1563944,196.230985 66.4673632,185.815239 60.8195666,174.425337 C55.2023601,163.131833 50.2523239,151.545623 46.0218519,139.902287 C50.2082771,128.214157 55.1370288,116.580967 60.7229345,105.242092 C66.3665648,93.6898531 72.0518037,83.1266145 77.7083907,74.2478235 C84.0406511,73.9671644 90.4937607,73.8236374 97.0095412,73.8236374 C103.569374,73.8236374 110.061483,73.9695154 116.426634,74.2546972 C122.020903,83.0668011 127.69896,93.5712129 133.343918,105.0508 C138.995783,116.551172 143.962644,128.168578 148.180843,139.826053 C143.883219,151.584807 138.866325,163.238955 132.590027,174.114965 Z" fill="#00D8FF"></path>
        <path d="M96.6767168,148.275993 C103.379877,148.275993 108.81722,142.838649 108.81722,136.135489 C108.81722,129.432329 103.379877,123.994985 96.6767168,123.994985 C89.9735564,123.994985 84.5362133,129.432329 84.5362133,136.135489 C84.5362133,142.838649 89.9735564,148.275993 96.6767168,148.275993 Z" fill="#00D8FF"></path>
    </g>
</svg>
