<?xml version="1.0" encoding="UTF-8"?>
<svg width="256px" height="256px" viewBox="0 0 256 256" version="1.1" xmlns="http://www.w3.org/2000/svg">
    <g>
        <path d="M128,0 C198.692448,0 256,57.307552 256,128 C256,198.692448 198.692448,256 128,256 C57.307552,256 0,198.692448 0,128 C0,57.307552 57.307552,0 128,0 Z" fill="#6DB33F"></path>
        <path d="M203.604878,185.853659 C168.780488,226.04878 107.317073,231.219512 62.1951219,200.97561 C17.0731707,170.731707 4.87804878,114.146341 29.2682927,69.0243902 C36.097561,57.9512195 44.5365854,47.804878 54.4390244,39.3658537 C64.3414634,30.9268293 75.4146341,24.097561 87.5121951,19.2195122 C99.6097561,14.3414634 112.487805,11.4146341 125.853659,10.4878049 C139.219512,9.56097561 152.585366,10.4878049 165.365854,13.4146341 C178.146341,16.3414634 190.243902,21.2195122 201.317073,27.804878 C212.390244,34.3902439 222.292683,42.8292683 230.731707,52.7317073 C239.170732,62.6341463 245.853659,73.7073171 250.731707,85.804878 C255.609756,97.9024390 258.536585,110.780488 259.463415,124.146341 C260.390244,137.512195 259.463415,150.878049 256.536585,163.658537 C253.609756,176.439024 248.731707,188.536585 242.146341,199.609756 C235.560976,210.682927 227.121951,220.585366 217.219512,229.024390 C207.317073,237.463415 196.243902,244.146341 184.146341,249.024390 C172.048780,253.902439 159.170732,256.829268 145.804878,257.756098 C132.439024,258.682927 119.073171,257.756098 106.292683,254.829268 C93.5121951,251.902439 81.4146341,247.024390 70.3414634,240.439024 C59.2682927,233.853659 49.3658537,225.414634 40.9268293,215.512195 C32.4878049,205.609756 25.804878,194.536585 20.9268293,182.439024 C16.0487805,170.341463 13.1219512,157.463415 12.1951220,144.097561 C11.2682927,130.731707 12.1951220,117.365854 15.1219512,104.585366 C18.0487805,91.804878 22.9268293,79.7073171 29.5121951,68.6341463 C36.097561,57.5609756 44.5365854,47.6585366 54.4390244,39.2195122 C64.3414634,30.7804878 75.4146341,24.097561 87.5121951,19.2195122 C99.6097561,14.3414634 112.487805,11.4146341 125.853659,10.4878049 C139.219512,9.56097561 152.585366,10.4878049 165.365854,13.4146341 C178.146341,16.3414634 190.243902,21.2195122 201.317073,27.804878 C212.390244,34.3902439 222.292683,42.8292683 230.731707,52.7317073" fill="#FFFFFF"></path>
        <path d="M128,51.2 C166.4,51.2 198.4,83.2 198.4,121.6 C198.4,160 166.4,192 128,192 C89.6,192 57.6,160 57.6,121.6 C57.6,83.2 89.6,51.2 128,51.2 Z" fill="#6DB33F"></path>
    </g>
</svg>
